<svg version="1.1" xmlns="http://www.w3.org/2000/svg" viewBox="0 0 1362.7865975371003 362" width="1362.7865975371003" height="362">
  <!-- svg-source:excalidraw -->
  
  <defs>
    <style class="style-fonts">
      @font-face {
        font-family: "Virgil";
        src: url("https://excalidraw.com/Virgil.woff2");
      }
      @font-face {
        font-family: "Cascadia";
        src: url("https://excalidraw.com/Cascadia.woff2");
      }
    </style>
  </defs>
  <rect x="0" y="0" width="1362.7865975371003" height="362" fill="#ffffff"></rect><g stroke-linecap="round"><g transform="translate(10.786658572256556 270) rotate(0 624.7840109090135 -0.16517876526131658)"><path d="M0.44 0.49 C208.77 0.53, 1041.91 -0.64, 1250.35 -0.82 M-0.79 -0.3 C207.38 -0.03, 1040.97 0.17, 1249.59 0.28" stroke="#000000" stroke-width="1" fill="none"></path></g><g transform="translate(10.786658572256556 270) rotate(0 624.7840109090135 -0.16517876526131658)"><path d="M1222.22 11.12 C1229.5 8.9, 1239.24 5.41, 1250.05 0.29 M1222.36 11.14 C1231.04 8.01, 1240.89 4.24, 1249.93 0.9" stroke="#000000" stroke-width="1" fill="none"></path></g><g transform="translate(10.786658572256556 270) rotate(0 624.7840109090135 -0.16517876526131658)"><path d="M1222.23 -9.4 C1229.32 -4.79, 1239.06 -1.46, 1250.05 0.29 M1222.37 -9.38 C1231 -5.42, 1240.85 -2.1, 1249.93 0.9" stroke="#000000" stroke-width="1" fill="none"></path></g></g><mask></mask><g stroke-linecap="round" transform="translate(31.897803591787806 188.888916015625) rotate(0 32.77777099609375 32.77777099609375)"><path d="M7.51 11.83 C7.51 11.83, 7.51 11.83, 7.51 11.83 M7.51 11.83 C7.51 11.83, 7.51 11.83, 7.51 11.83 M1.35 24.51 C8.49 15.56, 13.44 11.18, 21.84 2.41 M3.23 22.05 C9.2 14.84, 16.39 6.73, 20.67 2.19 M-0.17 31.42 C6.75 23.38, 17.09 14.99, 25.55 2.76 M0.01 32.84 C6.1 24.51, 13.91 17.05, 26.34 2.8 M3.6 38.13 C9.66 26.95, 16.69 20.86, 31.9 3.11 M1.78 36.2 C8.71 29.39, 15.24 22.26, 31.36 3.23 M3.04 40.43 C11.53 29.8, 19.53 19.4, 38.07 1.52 M2.92 41.22 C15.1 26.97, 27.04 13.77, 36.15 1.9 M3.3 45.7 C10.62 35.82, 20.47 28.06, 42.62 5.02 M4.76 46.81 C11.7 36.88, 21.19 26.95, 41.44 3.2 M3.38 49.74 C15.98 36.98, 28.79 20.16, 45.82 4.12 M4.67 50.07 C17.7 36.12, 31.11 20.39, 47.52 2.55 M7.12 52.36 C23.86 35.59, 41.66 17.84, 49.37 4.43 M7.97 52.39 C19.53 41.59, 28.33 30.3, 49.98 5.54 M12.38 56.46 C20.89 44.23, 30.67 34.6, 54.01 7.15 M11.08 56.09 C21.06 45.94, 29.2 34.7, 52.27 8.96 M16.53 60.05 C26.5 46.08, 33.77 34.04, 55.28 13.18 M14.03 58.96 C24.83 46.47, 34.7 35.35, 55.4 10.44 M17.56 58.82 C27.95 49.66, 39.84 34.87, 57.86 11.42 M17.49 60.33 C27.19 50.38, 35.84 39.88, 59.29 13.27 M22.45 64.74 C29.18 53.36, 37.81 42.66, 62.59 15.09 M20.11 64.25 C31.62 50.32, 43.05 39.06, 61.74 16.29 M26.79 65.04 C35.78 53.9, 42.54 44.92, 64.18 18.8 M26.14 63.99 C38.57 51.72, 49.41 37.95, 63.09 21.42 M32.56 64.39 C42.98 50.67, 52.56 39.01, 64.79 23.32 M30.14 64.72 C42.32 51.21, 55.28 37.68, 65.82 24.03 M35.77 63.36 C49.04 52.08, 58.47 36.42, 65.87 27.94 M36.63 63.53 C42.79 57.14, 50.26 48.21, 65.3 29.78 M39.45 64.81 C48.45 57.82, 56.1 47.68, 67.06 33.77 M40.03 66.34 C50.67 54.15, 59.52 41.54, 66.73 35.51 M44.73 65.61 C48.19 59.27, 57.33 54.81, 60.03 45.81 M43.68 67.18 C50.78 60.77, 56.42 53.45, 61.86 47.78" stroke="#fab005" stroke-width="0.5" fill="none"></path><path d="M24.3 0.28 C30.12 -2, 38.52 -0.45, 44.38 1.78 C50.24 4.01, 55.87 8.17, 59.44 13.67 C63.02 19.17, 66.03 28.18, 65.81 34.79 C65.59 41.41, 62.22 48.28, 58.12 53.35 C54.01 58.42, 47.36 63.57, 41.16 65.21 C34.95 66.86, 26.91 65.71, 20.88 63.2 C14.85 60.68, 8.47 55.46, 4.97 50.12 C1.47 44.79, -0.55 37.62, -0.1 31.2 C0.35 24.79, 3.29 16.92, 7.66 11.65 C12.04 6.38, 22.48 1.36, 26.15 -0.4 C29.81 -2.16, 29.41 0.47, 29.65 1.08 M19.01 1.97 C24.34 -0.87, 34.16 -0.01, 40.51 1.8 C46.87 3.61, 53.15 8.25, 57.17 12.82 C61.19 17.4, 63.9 23.15, 64.64 29.24 C65.38 35.33, 65.03 43.67, 61.58 49.35 C58.14 55.02, 49.89 60.94, 44 63.31 C38.1 65.68, 32.23 65.31, 26.23 63.57 C20.22 61.82, 12.51 57.29, 7.97 52.84 C3.43 48.4, -0.31 42.87, -1 36.92 C-1.68 30.96, 0.13 23.08, 3.86 17.13 C7.6 11.19, 18.43 3.62, 21.42 1.25 C24.41 -1.13, 21.74 2.11, 21.8 2.88" stroke="#000000" stroke-width="1" fill="none"></path></g><g transform="translate(431.89786462694406 10) rotate(0 187.055908203125 22.5)"><text x="0" y="0" font-family="Virgil, Segoe UI Emoji" font-size="36px" fill="#000000" text-anchor="start" style="white-space: pre;" direction="ltr" dominant-baseline="text-before-edge">ECMAScript Releases</text></g><g transform="translate(35.231055544912806 143.3333740234375) rotate(0 27.953994750976562 22.5)"><text x="0" y="0" font-family="Virgil, Segoe UI Emoji" font-size="36px" fill="#000000" text-anchor="start" style="white-space: pre;" direction="ltr" dominant-baseline="text-before-edge">ES1</text></g><g stroke-linecap="round" transform="translate(115.5644295683503 187.22216796875) rotate(0 32.77777099609375 32.77777099609375)"><path d="M7.31 10.33 C7.31 10.33, 7.31 10.33, 7.31 10.33 M7.31 10.33 C7.31 10.33, 7.31 10.33, 7.31 10.33 M3.37 19.74 C6.95 18.54, 7.96 12.69, 17.87 3.1 M2.22 22.14 C6.83 16.58, 11.5 9.75, 17.18 5.58 M2.86 28.82 C5.68 23.09, 11.75 16.46, 24.7 3.09 M0.48 29.75 C8.98 18.69, 20.31 7.5, 25.01 1.87 M1.77 34.23 C7.68 27.61, 11.66 20.6, 31.62 -0.34 M2.38 35.07 C9.48 24.93, 17.38 15.55, 29.82 2.49 M2.83 40.05 C9.86 30.19, 19.59 19.33, 36.85 3.35 M3.33 39.17 C15.09 25.91, 26.7 11.44, 35.21 1.13 M1.77 45.16 C11.76 35.35, 19.54 26.02, 40.93 2.1 M3.14 45.47 C15.7 30.85, 27.46 15.93, 40.13 2.21 M6.38 51.28 C17.56 34.35, 31.52 20.53, 47.67 2.8 M3.96 50.38 C19.88 31.78, 34.82 14.42, 45.85 2 M8.25 54.59 C16.68 44.24, 23.22 34.51, 49.87 4.85 M8.03 52.38 C19.16 38.68, 30.66 24.36, 48.65 4.7 M11.14 56.79 C24.33 36.45, 41.12 20.84, 52.94 6.69 M11.02 55.64 C21.19 43.44, 31.02 31.81, 51.35 8.5 M13.93 56.37 C22.42 45.46, 35.79 33.06, 56.65 11.91 M12.93 58.84 C28.49 41.6, 41.09 26.71, 54.11 10.19 M16.36 62.23 C26.14 47.9, 40.26 33.55, 58.81 12.27 M16.83 61.27 C25.84 49.03, 36.05 37.27, 58.01 13.8 M20.67 62.92 C34.41 45.64, 51.55 28.57, 58.94 15.04 M20.45 63.65 C28.06 53.85, 38.3 42.87, 61.73 16.37 M23.34 66 C34.83 50.37, 43.83 40.93, 62.65 21.82 M22.85 66.03 C31.88 54.31, 40.44 44.08, 61.9 20.37 M27.38 64.35 C43.01 50.03, 57.39 32.25, 64.61 24.06 M28.76 65.55 C39.33 54.1, 47.19 43.5, 63.01 25.7 M33.47 65.25 C44.21 50.78, 59.23 38.15, 64.93 29.91 M32.63 66.15 C42.42 55.3, 52.73 42, 65.77 28.13 M39.52 64.39 C48.2 55.75, 58.22 45.09, 65.57 35.29 M38.15 66.04 C43.21 60, 49.54 52.4, 66.5 34.83 M43.75 66.47 C54.18 57.51, 59.44 46.59, 69.9 38.39 M42.37 66.89 C49.47 59.7, 56.36 51.63, 68.67 36.49" stroke="#12b886" stroke-width="0.5" fill="none"></path><path d="M25.25 0.48 C31.2 -1.6, 39.41 -0.48, 45.26 1.92 C51.1 4.32, 56.85 9.35, 60.33 14.86 C63.81 20.36, 66.52 28.33, 66.15 34.96 C65.79 41.59, 62.47 49.73, 58.12 54.64 C53.77 59.55, 46.4 63.01, 40.06 64.43 C33.72 65.86, 26.07 65.58, 20.08 63.17 C14.09 60.76, 7.46 55.59, 4.11 49.98 C0.76 44.37, -0.53 36.1, -0.02 29.51 C0.49 22.93, 1.98 15.49, 7.18 10.46 C12.39 5.44, 26.29 0.97, 31.21 -0.65 C36.13 -2.26, 36.78 0.22, 36.68 0.76 M36.8 -0.93 C43.09 -1.1, 50.33 2.85, 55.11 7.37 C59.88 11.89, 64.33 19.73, 65.44 26.2 C66.55 32.68, 64.36 40.33, 61.77 46.24 C59.17 52.14, 55.19 58.42, 49.89 61.65 C44.58 64.89, 36.31 66.14, 29.93 65.66 C23.55 65.18, 16.59 63.2, 11.63 58.76 C6.67 54.32, 1.83 45.65, 0.15 39.02 C-1.52 32.38, -1.07 24.86, 1.57 18.95 C4.21 13.04, 10.58 6.82, 16 3.58 C21.42 0.33, 30.79 -0.09, 34.09 -0.5 C37.39 -0.91, 35.52 0.42, 35.81 1.13" stroke="#000000" stroke-width="1" fill="none"></path></g><g transform="translate(118.8976815214753 141.6666259765625) rotate(0 35.891990661621094 22.5)"><text x="0" y="0" font-family="Virgil, Segoe UI Emoji" font-size="36px" fill="#000000" text-anchor="start" style="white-space: pre;" direction="ltr" dominant-baseline="text-before-edge">ES2</text></g><g stroke-linecap="round" transform="translate(197.3421395292878 188.66668701171875) rotate(0 32.77777099609375 32.77777099609375)"><path d="M5 16.27 C5 16.27, 5 16.27, 5 16.27 M5 16.27 C5 16.27, 5 16.27, 5 16.27 M1.07 24.93 C6.38 20.98, 10.32 15.35, 20.37 4.77 M2.83 26.39 C5.7 21.29, 9.51 16.52, 20.6 4.21 M-2.61 36.94 C5.48 25.36, 13.79 19.59, 25.52 4.41 M-0.39 35.78 C6.03 28, 11.34 21.29, 27.17 2.47 M1.17 39.83 C12.64 30.29, 21.24 17.79, 31.77 4.5 M1.71 39.41 C11.34 27.28, 20.7 16.19, 32.26 2.27 M0.91 44.7 C14.02 30.42, 28.69 16.33, 39.46 1.05 M2.53 42.85 C16.99 28.1, 29.66 11.12, 37.92 1.74 M6.28 44.99 C13.56 37.82, 23.47 25.73, 41.32 3.15 M4.57 46.39 C16.32 34.52, 27.56 20.92, 43.3 2.19 M6.12 52.51 C22.6 33.64, 35.57 13.86, 47.06 5.19 M7.07 49.99 C19.05 34.44, 34.2 20.04, 45.89 4.24 M8.43 53.83 C24.61 38.81, 37.79 21.97, 50.69 8.24 M8.47 53.66 C18.9 43.68, 28.69 31.42, 50.26 6.21 M13.7 58.49 C22.68 45.92, 32.19 32.47, 54.54 9.55 M11.23 56.62 C28.02 39.91, 44.27 20.49, 54.65 9.57 M15.55 59.2 C28.93 45.99, 38.55 32.68, 55.87 8.71 M15.1 59.48 C33.33 39.38, 49.36 20.13, 57.15 10.05 M21.38 60.24 C32 46.38, 41.59 34.61, 60.22 15.6 M19.21 59.64 C30.28 49.5, 39.82 38, 59.53 13.6 M24.35 62.44 C37.49 46.58, 50.97 27.85, 60.64 19.28 M22.64 64.18 C36.15 45.98, 51.53 29.37, 62.02 18.23 M26.64 64.58 C35.8 57.14, 40.82 46.91, 63.09 24.51 M25.17 64.27 C37.66 51.98, 48.45 38.13, 63.24 22.47 M32.81 63.34 C38.83 56.05, 47.13 48.32, 65.7 25.09 M31.24 65.08 C42.94 51.41, 53.27 39.98, 65.02 27.75 M35.85 64.76 C43.46 54.82, 51.18 47.83, 66.13 29.65 M37.4 64.19 C46.15 54.5, 54.38 45.96, 66.21 32.07 M41.68 63.92 C48.77 55.39, 54.99 47.36, 64.21 40.27 M43.51 63.25 C51.01 55.63, 58.5 45.63, 64.97 37.66 M47.92 63.58 C55.36 59.56, 58.01 51.81, 64.5 45.93 M48.89 63.64 C53.89 59.44, 58.44 53.23, 63.73 46.35" stroke="#4c6ef5" stroke-width="0.5" fill="none"></path><path d="M41 0.89 C46.88 1.82, 53.39 5.57, 57.42 10.35 C61.45 15.12, 64.55 22.87, 65.19 29.53 C65.83 36.19, 64.44 44.78, 61.26 50.32 C58.08 55.87, 52.23 60.5, 46.13 62.81 C40.02 65.12, 30.94 65.7, 24.61 64.2 C18.27 62.69, 12.36 58.6, 8.11 53.77 C3.87 48.94, -0.38 41.49, -0.87 35.2 C-1.35 28.91, 1.86 21.4, 5.2 16.04 C8.55 10.68, 13.03 5.59, 19.2 3.05 C25.38 0.51, 38.36 0.86, 42.25 0.79 C46.13 0.72, 42.84 1.99, 42.5 2.63 M42.19 -0.21 C48.32 0.9, 55.33 5.64, 59 10.69 C62.67 15.74, 63.75 23.74, 64.23 30.11 C64.72 36.49, 64.96 43.38, 61.89 48.93 C58.83 54.48, 51.81 60.93, 45.86 63.4 C39.91 65.86, 32.6 65.43, 26.18 63.72 C19.77 62.01, 11.65 58.13, 7.37 53.15 C3.09 48.18, 1.02 39.96, 0.5 33.88 C-0.02 27.8, 0.68 21.68, 4.23 16.67 C7.78 11.66, 15.46 6.51, 21.79 3.8 C28.12 1.09, 39.12 1.02, 42.23 0.41 C45.34 -0.2, 40.87 -0.72, 40.45 0.15" stroke="#000000" stroke-width="1" fill="none"></path></g><g transform="translate(200.6753914824128 143.11114501953125) rotate(0 35.33399200439453 22.5)"><text x="0" y="0" font-family="Virgil, Segoe UI Emoji" font-size="36px" fill="#000000" text-anchor="start" style="white-space: pre;" direction="ltr" dominant-baseline="text-before-edge">ES3</text></g><g transform="translate(36.342261599600306 273.888916015625) rotate(0 26.73998260498047 35)"><text x="26.73998260498047" y="0" font-family="Virgil, Segoe UI Emoji" font-size="28px" fill="#000000" text-anchor="middle" style="white-space: pre;" direction="ltr" dominant-baseline="text-before-edge">june</text><text x="26.73998260498047" y="35" font-family="Virgil, Segoe UI Emoji" font-size="28px" fill="#000000" text-anchor="middle" style="white-space: pre;" direction="ltr" dominant-baseline="text-before-edge">97</text></g><g transform="translate(119.76860742479562 275.27777099609375) rotate(0 26.73998260498047 35)"><text x="26.73998260498047" y="0" font-family="Virgil, Segoe UI Emoji" font-size="28px" fill="#000000" text-anchor="middle" style="white-space: pre;" direction="ltr" dominant-baseline="text-before-edge">june</text><text x="26.73998260498047" y="35" font-family="Virgil, Segoe UI Emoji" font-size="28px" fill="#000000" text-anchor="middle" style="white-space: pre;" direction="ltr" dominant-baseline="text-before-edge">98</text></g><g transform="translate(212.59066705614327 272.9444580078125) rotate(0 22.651992797851562 35)"><text x="22.651992797851562" y="0" font-family="Virgil, Segoe UI Emoji" font-size="28px" fill="#000000" text-anchor="middle" style="white-space: pre;" direction="ltr" dominant-baseline="text-before-edge">dec</text><text x="22.651992797851562" y="35" font-family="Virgil, Segoe UI Emoji" font-size="28px" fill="#000000" text-anchor="middle" style="white-space: pre;" direction="ltr" dominant-baseline="text-before-edge">99</text></g><g stroke-linecap="round" transform="translate(554.1192925444245 194.111083984375) rotate(0 32.77777099609375 32.77777099609375)"><path d="M4.29 18.3 C4.29 18.3, 4.29 18.3, 4.29 18.3 M4.29 18.3 C4.29 18.3, 4.29 18.3, 4.29 18.3 M0.9 27.14 C7.24 19.29, 12.53 11.02, 22.57 3.34 M2.98 27.34 C7.48 20.81, 10.52 16.12, 21.8 4.73 M-0.28 36.51 C7.71 24.52, 16.35 15.16, 26.88 4.67 M0.29 36.37 C7.46 25.6, 16.97 17.66, 26.11 5.14 M2.9 40.95 C12.95 25.8, 24.22 10.21, 34.24 3.11 M1.64 38.41 C14.94 24.32, 26.52 11.72, 33.68 4.04 M1.92 43.54 C16.2 31.16, 26.09 16.98, 38.01 1.01 M3.94 42.82 C15.1 31.9, 24.68 19.14, 40.94 0.79 M5.39 48.43 C14.27 37.39, 20.64 27.95, 43.39 3.73 M6.81 46.95 C18.38 32.19, 31.02 16.15, 44.42 3.35 M7.6 48.75 C22.32 32.88, 34.6 16.58, 46.27 6.04 M7.07 51.44 C20.52 36.54, 33.27 21.53, 46.61 5.29 M9.43 55.83 C20.91 43.92, 29.05 31.48, 51.75 6.33 M10.63 54.11 C18.89 45.51, 25.61 35.24, 50.44 7.47 M10.76 58.61 C28.3 42.97, 41.46 23.42, 55.75 11.08 M12.92 58.81 C22.39 45.45, 32.22 34.02, 53.81 9.11 M16.8 59.36 C22.28 49.68, 33.87 40.64, 58.74 12.75 M16.05 59.72 C25.64 49.63, 36.53 36.87, 57.37 11.15 M19.14 60.85 C33.75 45.83, 47.5 29.7, 58.11 16.29 M20.01 62 C29.01 50.33, 40.24 38.45, 59.81 15.3 M22.1 62.06 C30.11 51.73, 39.68 44.2, 63.73 17.69 M23.84 64.11 C38.39 46.89, 52.72 30.09, 61.38 20.16 M27.03 65.03 C37.69 51.28, 50.71 39.82, 65.13 25.1 M27.99 64.11 C38.05 52.23, 49.43 40.79, 64.07 22.84 M31.39 62.96 C43.25 53.32, 55.51 36.38, 67.1 29.33 M32.3 64.33 C43.96 51.83, 53.81 39.69, 65.15 26.99 M41.1 62.95 C46.02 56.57, 53.69 47.21, 67.38 29.45 M38.4 63.67 C48.2 53.81, 56.29 43.9, 67.87 30.96 M47.55 63.9 C48.27 57.99, 54.63 53.04, 65.13 40.15 M45.6 61.94 C51.95 54.55, 56.61 48.82, 65.84 38.62" stroke="#868e96" stroke-width="0.5" fill="none"></path><path d="M38.73 0.65 C44.78 1.53, 52.46 6.2, 56.81 10.79 C61.16 15.38, 64.14 22.08, 64.84 28.18 C65.53 34.28, 63.89 41.84, 60.98 47.4 C58.06 52.95, 53.08 58.67, 47.34 61.51 C41.6 64.35, 32.83 65.44, 26.51 64.43 C20.2 63.42, 13.94 60, 9.45 55.45 C4.96 50.9, 0.45 43.31, -0.42 37.13 C-1.29 30.95, 1.1 24.02, 4.24 18.35 C7.38 12.69, 12.11 6.07, 18.41 3.16 C24.7 0.26, 37.64 0.91, 42.01 0.91 C46.38 0.92, 44.88 2.47, 44.61 3.19 M33.51 0.03 C39.5 -0.16, 47.59 2.95, 52.5 6.92 C57.42 10.9, 61.31 17.37, 62.98 23.89 C64.64 30.42, 64.44 39.9, 62.49 46.08 C60.53 52.25, 56.47 57.57, 51.27 60.92 C46.07 64.27, 38 66.54, 31.3 66.17 C24.6 65.8, 15.95 62.84, 11.08 58.71 C6.2 54.57, 3.64 47.74, 2.03 41.35 C0.43 34.96, -0.55 26.26, 1.45 20.37 C3.45 14.47, 8.48 9.54, 14.05 6 C19.62 2.45, 31.48 0.05, 34.88 -0.92 C38.27 -1.89, 34.27 -0.73, 34.42 0.16" stroke="#000000" stroke-width="1" fill="none"></path></g><g transform="translate(557.4525444975495 148.5555419921875) rotate(0 34.59599304199219 22.5)"><text x="0" y="0" font-family="Virgil, Segoe UI Emoji" font-size="36px" fill="#000000" text-anchor="start" style="white-space: pre;" direction="ltr" dominant-baseline="text-before-edge">ES4</text></g><g stroke-linecap="round" transform="translate(635.7860405912995 193.33331298828125) rotate(0 32.77777099609375 32.77777099609375)"><path d="M2.73 19.6 C2.73 19.6, 2.73 19.6, 2.73 19.6 M2.73 19.6 C2.73 19.6, 2.73 19.6, 2.73 19.6 M4.24 27.26 C7.46 20.4, 9.03 18.93, 18.1 7.52 M2.68 26.26 C7.5 18.1, 14.4 12.67, 20.07 5.92 M1.94 33.09 C9.27 24.05, 16.61 17.47, 26.95 5.67 M1.35 33.03 C9.24 24.79, 15.71 17.99, 26.04 4.53 M2.14 40.07 C11.86 29.61, 21.32 16.33, 33.33 2.53 M1.94 40.1 C7.97 31.21, 14.32 23.31, 31.46 3.16 M4.1 44.18 C13.43 31.22, 22.46 23.49, 39.83 3.31 M3.08 42.21 C15.56 29.3, 27.79 16.81, 38.99 2.39 M3.42 47.45 C16.06 35.51, 26.88 23.49, 43.82 3.05 M5.9 47.46 C15.38 34.22, 27.09 23.25, 42.91 4.72 M6.84 52.19 C17.17 40.39, 28.74 27.11, 45.64 4.13 M6.76 51.04 C22.17 35.5, 34.9 18.34, 46.31 6.58 M8.75 52.61 C23.15 38.98, 35.83 22.66, 52.51 8.89 M10.7 53.38 C19.17 42.77, 29.11 31.59, 50.89 6.52 M10.8 57.84 C25.81 42.55, 41.1 23.87, 54.08 10.43 M11.08 58.76 C22.53 45.55, 31.87 33.14, 53.6 8.5 M17.55 58.74 C30.53 44.03, 45.74 27.3, 57.51 12.39 M16.19 58.59 C25.89 46.66, 36.96 34.51, 57.55 11.24 M19.66 61.31 C32.83 47.29, 43.05 31.93, 59.79 16.08 M20.36 60.33 C33.1 44.51, 46.26 28.77, 61.45 13.82 M24.7 61.1 C32.54 51.09, 39.31 43.75, 61.44 17.2 M23.79 62.54 C34.29 51.54, 44.09 38.74, 63.12 18.02 M27.68 64.9 C42.03 47.14, 54.87 35.31, 64.83 22.74 M27.01 63.99 C36.85 53.18, 48.81 39.62, 64.93 21.67 M31.26 64.71 C44.31 51.75, 55.03 38.7, 63.97 24.72 M32.11 66.23 C42.79 52.19, 53.5 41.53, 65.42 25.99 M39.5 63.12 C48.06 53.32, 56.6 46.2, 64.77 34.34 M38.4 64.42 C47.62 54.08, 57.08 44.49, 64.64 34.19 M42.94 64.09 C49.86 56.77, 57.81 50.32, 64.03 41.67 M44.49 62.77 C48.26 57.15, 53.27 52.94, 63.07 40.8" stroke="#fa5252" stroke-width="0.5" fill="none"></path><path d="M35.98 1.12 C42.32 1.27, 50.73 3.78, 55.55 8 C60.37 12.22, 63.74 20.06, 64.9 26.44 C66.07 32.82, 65.24 40.57, 62.54 46.28 C59.84 51.99, 54.12 57.64, 48.71 60.71 C43.29 63.78, 36.22 65.22, 30.06 64.7 C23.89 64.19, 16.49 61.85, 11.72 57.63 C6.94 53.4, 2.9 45.71, 1.41 39.35 C-0.07 33, 0.2 25.33, 2.82 19.49 C5.43 13.65, 10.66 7.39, 17.1 4.3 C23.54 1.22, 36.84 1.1, 41.46 0.96 C46.07 0.81, 45.09 2.88, 44.8 3.44 M40.93 0.35 C46.71 1.34, 53.71 5.26, 57.6 10.48 C61.49 15.71, 63.98 25.2, 64.25 31.7 C64.52 38.2, 62.35 44.23, 59.23 49.48 C56.1 54.73, 51.02 60.6, 45.51 63.21 C39.99 65.82, 32.28 66.87, 26.15 65.13 C20.02 63.39, 13.32 57.76, 8.73 52.76 C4.14 47.76, -0.96 41.47, -1.4 35.14 C-1.83 28.82, 2.43 20.15, 6.11 14.82 C9.79 9.48, 14.65 5.45, 20.67 3.13 C26.68 0.81, 38.76 1.19, 42.2 0.92 C45.64 0.65, 41.84 0.92, 41.3 1.5" stroke="#000000" stroke-width="1" fill="none"></path></g><g transform="translate(639.1192925444245 147.77777099609375) rotate(0 34.199989318847656 22.5)"><text x="0" y="0" font-family="Virgil, Segoe UI Emoji" font-size="36px" fill="#000000" text-anchor="start" style="white-space: pre;" direction="ltr" dominant-baseline="text-before-edge">ES5</text></g><g stroke-linecap="round" transform="translate(962.8971245756745 192.111083984375) rotate(0 32.77777099609375 32.77777099609375)"><path d="M10.24 10.22 C10.24 10.22, 10.24 10.22, 10.24 10.22 M10.24 10.22 C10.24 10.22, 10.24 10.22, 10.24 10.22 M0.73 27.21 C5.95 22.2, 11.64 15.63, 19.45 3.4 M1.55 25.15 C8.11 19.7, 13.94 13.63, 18.92 6.09 M4.41 28.38 C11.27 19.63, 17.83 12.06, 27.84 2.93 M3.76 30.51 C10.94 19.62, 20.11 11.32, 29.05 1.21 M4.07 35.63 C13.29 24.82, 25.55 10.33, 32.46 1.94 M3.8 36.32 C15.73 22.17, 27.18 9.62, 34.61 2.14 M6.34 39.91 C13.85 27.28, 26.48 19.07, 39.15 1.94 M5.53 40.87 C12.89 31.32, 18.85 23.84, 38.4 2.29 M2.45 47.6 C13.3 36.25, 24.78 20.64, 42.8 1.92 M4.06 47.6 C15.07 35.03, 26.04 22.25, 43.67 3.07 M5.66 51.68 C16.26 36.94, 29.63 26.89, 47.07 1.61 M7.2 51.86 C15.69 40.98, 25.67 29.58, 48.81 3.66 M8.62 52.72 C27.72 34.87, 40.96 14.87, 50.69 6.1 M9.82 54.33 C21.2 41.32, 30.88 29.89, 51.65 5.18 M13.5 57.31 C24.88 41.82, 37.83 25.32, 52.43 7.04 M11.83 57.08 C22.56 45.76, 30.55 35.12, 53.34 8.42 M15.05 58.69 C27.83 43.41, 42.8 29.35, 58.2 11.56 M16.35 58.67 C25.44 46.31, 37.5 34.4, 55.5 12.28 M18.3 62.03 C34.03 42.1, 49.24 24.27, 61.37 16.28 M19.28 60.95 C27.73 51.53, 34.98 42.26, 59.42 14.33 M23.56 62.23 C36.15 49.14, 50.4 33.4, 60.48 17.14 M23.31 63.47 C39.13 45.48, 53.87 27.51, 61.8 18.15 M28.16 61.8 C42.08 49.53, 53.42 34.13, 62.94 24.72 M27.65 62.79 C41.24 46.84, 55.41 31.47, 63.41 23.19 M30.11 65.58 C45.89 49.93, 56.44 35.22, 62.6 28.49 M32.57 63.83 C40.72 53.35, 49.9 44.08, 64.61 28.58 M37.07 66.88 C43.68 58.61, 47.76 52.07, 65.6 31.48 M36.47 65.46 C45.32 55.5, 52.41 46.05, 64.17 32.26 M38.17 67.26 C47.56 61.53, 51.07 52.92, 63.96 39 M40.54 66.85 C46.87 60.25, 51.68 52.09, 64.85 37.31 M48.53 61.81 C51.02 60.98, 53.68 57.01, 57.15 53.35 M49.05 63.41 C51.54 59.46, 54.01 57.12, 57.65 53.21" stroke="#e64980" stroke-width="0.5" fill="none"></path><path d="M47.45 2.81 C53.13 4.99, 59.08 11.3, 62.05 17.13 C65.01 22.96, 66.24 31.37, 65.25 37.77 C64.27 44.18, 60.79 50.94, 56.14 55.57 C51.48 60.21, 43.57 64.65, 37.34 65.6 C31.11 66.55, 24.49 64.17, 18.76 61.27 C13.03 58.37, 5.88 53.88, 2.98 48.2 C0.08 42.51, 0.19 33.44, 1.36 27.16 C2.52 20.89, 5.5 14.93, 9.96 10.54 C14.43 6.15, 21 1.32, 28.15 0.83 C35.3 0.33, 48.23 5.84, 52.86 7.57 C57.49 9.31, 56.43 11.09, 55.92 11.25 M43.58 2.39 C49.44 3.43, 54.39 7.54, 58.3 12.37 C62.21 17.21, 66.69 24.72, 67.03 31.41 C67.37 38.1, 64.14 46.98, 60.33 52.52 C56.52 58.05, 50.36 62.63, 44.18 64.62 C38 66.61, 29.74 66.74, 23.25 64.44 C16.77 62.14, 9.11 55.92, 5.29 50.8 C1.46 45.67, 0.03 39.97, 0.3 33.68 C0.57 27.4, 3.2 18.66, 6.9 13.08 C10.61 7.5, 16.68 2.18, 22.56 0.22 C28.43 -1.74, 38.76 1.07, 42.16 1.32 C45.56 1.56, 43.03 1.22, 42.95 1.7" stroke="#000000" stroke-width="1" fill="none"></path></g><g transform="translate(947.3414605131745 107.6666259765625) rotate(0 41.20198059082031 45)"><text x="0" y="0" font-family="Virgil, Segoe UI Emoji" font-size="36px" fill="#000000" text-anchor="start" style="white-space: pre;" direction="ltr" dominant-baseline="text-before-edge">ES</text><text x="0" y="45" font-family="Virgil, Segoe UI Emoji" font-size="36px" fill="#000000" text-anchor="start" style="white-space: pre;" direction="ltr" dominant-baseline="text-before-edge">2015</text></g><g stroke-linecap="round" transform="translate(1050.230498599112 191.6666259765625) rotate(0 32.77777099609375 32.77777099609375)"><path d="M11.79 7.6 C11.79 7.6, 11.79 7.6, 11.79 7.6 M11.79 7.6 C11.79 7.6, 11.79 7.6, 11.79 7.6 M0.49 24.98 C6.52 16.36, 13.07 12.53, 18.75 3.13 M1.22 25.76 C7.79 17.04, 15.72 8.76, 18.87 4.59 M3.08 31.12 C11.41 22.13, 16.39 15.89, 26.5 3.46 M2.57 31.47 C8.64 22.93, 17.59 14.38, 27.56 2.05 M2.63 34.68 C14.42 26.99, 20.71 14.5, 32.68 2.89 M1.94 36.97 C10 27.43, 18.13 17.91, 31.75 2.12 M3.75 42.77 C10.75 30.69, 24.54 19.14, 35.88 3.42 M2.12 43.23 C15.71 27.26, 30.71 10.73, 37.31 3.37 M4.15 47.43 C12.18 39, 21.65 28.05, 42.97 3.78 M5.26 45.8 C13.26 37.63, 21.74 28, 42.39 2.53 M7.02 48.75 C18.72 35.08, 33.3 17.41, 46.2 6.09 M6.3 50.41 C16.23 41.3, 22.97 31.74, 46.48 4.64 M8.72 53.84 C25.76 33.37, 41.17 17.62, 52.13 5.02 M8.52 53.55 C22.26 36.6, 36.38 21.35, 50.31 4.79 M11.1 55.46 C21.48 43.68, 33.47 28.75, 55.36 9.75 M10.92 55.56 C19.83 45.2, 28.68 35.62, 53.61 7.58 M15.21 57.3 C23.02 48.84, 33.55 36.66, 54.21 10.65 M13.82 59.48 C31.06 40.91, 48.28 21.05, 55.64 12.37 M18.32 64.3 C28.61 47.82, 43.44 31.63, 58.37 14.94 M16.93 61.93 C31.73 46.42, 47.11 29.26, 58.93 14.4 M21.56 65.2 C33.69 50.34, 46.59 33.45, 59.99 18.7 M20.88 63.12 C29.45 53.89, 38.07 46.1, 61.27 17.42 M25.07 65.66 C40.29 49.67, 53.51 35.88, 64.65 22.71 M25.4 64.52 C39.94 48.03, 54.8 30.32, 64.64 21 M28.21 66 C36.24 55.5, 46.41 49.99, 61.8 25.76 M29.45 66.19 C39.76 55.86, 48.81 44.34, 62.67 26.39 M35.99 66.04 C42.93 57.29, 52.44 45.1, 62.92 31.69 M34.67 66.08 C43.39 55.42, 52.49 45.71, 64.73 33.08 M41.36 61.65 C49.08 54.54, 59.65 47.53, 64.73 38.96 M43.61 64.16 C51.35 54.8, 58.88 43.97, 64.14 38.93 M50.38 63.63 C52.56 56.63, 59.05 51.13, 65.46 42.47 M49.84 61.79 C54.55 57.09, 57.97 52.79, 66.37 43.5" stroke="#be4bdb" stroke-width="0.5" fill="none"></path><path d="M31.3 0.57 C37.14 -0.39, 44.39 1.11, 49.72 4.53 C55.05 7.95, 60.86 15.06, 63.27 21.11 C65.69 27.15, 65.66 34.51, 64.2 40.82 C62.74 47.14, 59.51 54.94, 54.5 59 C49.5 63.06, 40.82 64.83, 34.16 65.17 C27.51 65.51, 19.97 64.56, 14.58 61.04 C9.2 57.51, 4.13 50.2, 1.85 44.03 C-0.43 37.87, -0.73 30.12, 0.92 24.05 C2.58 17.98, 6.65 11.56, 11.78 7.62 C16.91 3.67, 28.18 1.5, 31.71 0.38 C35.24 -0.74, 32.96 0.41, 32.97 0.88 M26.44 0.24 C32.41 -1.41, 42.32 -0.18, 48.3 2.54 C54.28 5.25, 59.68 10.54, 62.32 16.54 C64.97 22.55, 65.08 32.18, 64.18 38.56 C63.28 44.94, 61.41 50.6, 56.91 54.83 C52.41 59.06, 43.81 62.82, 37.18 63.96 C30.55 65.09, 22.58 64.04, 17.15 61.65 C11.72 59.26, 7.59 55.03, 4.59 49.63 C1.59 44.24, -1.57 35.87, -0.84 29.29 C-0.11 22.7, 4.11 14.85, 8.96 10.14 C13.81 5.42, 25 2.58, 28.26 1 C31.52 -0.57, 28.42 0.38, 28.52 0.69" stroke="#000000" stroke-width="1" fill="none"></path></g><g transform="translate(1036.897002505362 106.11114501953125) rotate(0 41.597984313964844 45)"><text x="0" y="0" font-family="Virgil, Segoe UI Emoji" font-size="36px" fill="#000000" text-anchor="start" style="white-space: pre;" direction="ltr" dominant-baseline="text-before-edge">ES</text><text x="0" y="45" font-family="Virgil, Segoe UI Emoji" font-size="36px" fill="#000000" text-anchor="start" style="white-space: pre;" direction="ltr" dominant-baseline="text-before-edge">2016</text></g><g stroke-linecap="round" transform="translate(1126.563750552237 189.77777099609375) rotate(0 32.77777099609375 32.77777099609375)"><path d="M6.32 14.77 C6.32 14.77, 6.32 14.77, 6.32 14.77 M6.32 14.77 C6.32 14.77, 6.32 14.77, 6.32 14.77 M3.08 26.02 C6.3 20.78, 10.98 13.86, 22.61 0.37 M3.17 24.95 C10.88 15.74, 18.85 7.08, 21.93 2.66 M-1.72 32.54 C8.8 24.39, 16.37 16.29, 28.98 2.42 M-0.27 33.81 C5.76 28.56, 11.43 21.94, 27.35 2.89 M1.7 39.14 C9.33 28.01, 17.39 22.62, 32.66 3.32 M1.57 38.99 C11.03 26.42, 20.54 15.34, 33.77 1.69 M3.58 43.45 C14.08 28.74, 30.15 12.94, 38.81 0.86 M2.62 42.57 C12.26 32.24, 19.19 22.85, 38.09 2.52 M6.75 47.1 C19.26 32.45, 34.53 14.6, 43.14 2.93 M5.85 47.5 C17.82 32.4, 31.41 17.51, 42.94 2.64 M6.99 50.99 C13.59 41.18, 26.07 31.97, 46.18 3.8 M5.69 52.5 C16.01 40.26, 25.31 30.34, 45.99 3.89 M8.1 54.92 C17.89 42, 28.92 32.4, 50.28 5.63 M8 54.12 C17.88 44.4, 27.75 31.21, 48.89 7.82 M10.24 56.89 C23.87 44.89, 34.15 30.26, 54.7 11.12 M10.45 57.65 C22.06 45.94, 33.45 32.22, 53.31 8.76 M16.97 60.62 C26.17 45.31, 39.31 29.55, 56.64 13.54 M14.46 59.15 C26.52 45.37, 37.68 32.38, 55.96 11.45 M18.93 63.19 C29.41 48.2, 45.64 31.58, 58.83 15.51 M18.87 62.59 C34.87 44.45, 50.47 26.01, 59.16 14.37 M21.49 65.76 C32.47 50.19, 45.2 37.51, 60 18.11 M22.57 63.17 C31.22 52.27, 41.57 41.58, 61.25 18.3 M25.82 64.21 C35.48 52.08, 50.25 37.92, 64.5 21.92 M25.54 65.4 C33.53 55.54, 43.15 45.61, 63.19 21.96 M28.51 67.91 C40.99 55.71, 50.09 44.6, 63.96 24.33 M31.46 66.46 C38.58 57.7, 46.64 47.71, 66.22 26.83 M35.37 65.55 C46.67 52.89, 55.82 43.62, 67.08 33.1 M35.41 65.58 C43.56 56.46, 51.71 48.36, 66.55 31.25 M43.02 66.19 C51.85 54.68, 60.29 46.87, 64.59 40.47 M42.48 65.57 C47.98 58.89, 53.85 49.73, 64.36 40.04 M47.98 65.36 C51.48 61.28, 57.28 54.37, 60.21 50.11 M46.82 66.45 C51.94 60.2, 56.45 54.09, 61.68 50" stroke="#7950f2" stroke-width="0.5" fill="none"></path><path d="M20.98 1.16 C26.29 -1.56, 34.77 -1.58, 40.97 0.4 C47.16 2.38, 53.89 7.95, 58.14 13.01 C62.4 18.07, 66.08 24.44, 66.51 30.74 C66.94 37.05, 64.45 45.26, 60.73 50.85 C57.01 56.45, 50.28 61.93, 44.18 64.32 C38.09 66.71, 30.43 66.94, 24.19 65.2 C17.95 63.45, 10.84 59.12, 6.72 53.86 C2.6 48.6, -0.48 40.19, -0.52 33.65 C-0.57 27.1, 2.45 20.14, 6.46 14.62 C10.46 9.09, 20.16 2.71, 23.49 0.5 C26.83 -1.72, 26.34 0.76, 26.48 1.32 M41.76 0.81 C47.81 1.71, 53.91 7.43, 58.01 12.14 C62.11 16.85, 65.86 22.87, 66.35 29.08 C66.84 35.3, 64.22 43.67, 60.95 49.43 C57.68 55.19, 52.57 61.25, 46.74 63.65 C40.91 66.05, 32.33 65.58, 25.98 63.83 C19.64 62.08, 13.03 58.1, 8.68 53.14 C4.32 48.18, 0.67 40.52, -0.16 34.08 C-0.99 27.65, 0.05 19.87, 3.7 14.52 C7.34 9.18, 15.83 4.02, 21.73 1.99 C27.63 -0.04, 35.78 2.36, 39.1 2.36 C42.43 2.35, 41.69 1.58, 41.67 1.98" stroke="#000000" stroke-width="1" fill="none"></path></g><g transform="translate(1127.674834536612 104.22222900390625) rotate(0 39.761985778808594 45)"><text x="0" y="0" font-family="Virgil, Segoe UI Emoji" font-size="36px" fill="#000000" text-anchor="start" style="white-space: pre;" direction="ltr" dominant-baseline="text-before-edge">ES</text><text x="0" y="45" font-family="Virgil, Segoe UI Emoji" font-size="36px" fill="#000000" text-anchor="start" style="white-space: pre;" direction="ltr" dominant-baseline="text-before-edge">2017</text></g><g stroke-linecap="round" transform="translate(1208.3421395292878 189.33331298828125) rotate(0 32.77777099609375 32.77777099609375)"><path d="M36.24 0.96 C42.36 1.3, 49.69 4.85, 54.44 8.9 C59.2 12.95, 63.42 19.02, 64.74 25.24 C66.06 31.46, 65.12 40.27, 62.37 46.23 C59.62 52.19, 53.85 57.87, 48.23 60.98 C42.61 64.09, 34.95 65.51, 28.64 64.88 C22.33 64.26, 15.18 61.32, 10.37 57.25 C5.56 53.17, 0.98 46.62, -0.21 40.41 C-1.4 34.21, 0.6 25.94, 3.21 20.02 C5.81 14.1, 9.33 8.24, 15.4 4.91 C21.48 1.58, 35.39 0.48, 39.64 0.04 C43.9 -0.41, 41.04 1.63, 40.94 2.25" stroke="#000000" stroke-width="1.5" fill="none" stroke-dasharray="8 9"></path></g><g stroke-linecap="round" transform="translate(1287.2310555449128 189.22222900390625) rotate(0 32.77777099609375 32.77777099609375)"><path d="M17.49 3.19 C22.73 0.05, 32.06 0.04, 38.49 1.26 C44.91 2.48, 51.47 6.02, 56.03 10.51 C60.6 15, 64.77 21.86, 65.9 28.22 C67.02 34.58, 65.74 42.91, 62.79 48.66 C59.83 54.41, 54.09 60.01, 48.16 62.72 C42.23 65.43, 33.69 65.95, 27.2 64.9 C20.72 63.85, 13.73 60.95, 9.22 56.4 C4.72 51.85, 0.96 44.05, 0.17 37.62 C-0.61 31.18, 0.61 23.72, 4.5 17.8 C8.39 11.88, 19.26 5.09, 23.51 2.09 C27.77 -0.91, 29.75 -0.48, 30.03 -0.2" stroke="#000000" stroke-width="1.5" fill="none" stroke-dasharray="1.5 7"></path></g><g transform="translate(448.5902398100495 276.99993896484375) rotate(0 80.75196075439453 35)"><text x="161.50392150878906" y="0" font-family="Virgil, Segoe UI Emoji" font-size="28px" fill="#000000" text-anchor="end" style="white-space: pre;" direction="ltr" dominant-baseline="text-before-edge">2008</text><text x="161.50392150878906" y="35" font-family="Virgil, Segoe UI Emoji" font-size="28px" fill="#000000" text-anchor="end" style="white-space: pre;" direction="ltr" dominant-baseline="text-before-edge">(abandoned)</text></g><g transform="translate(635.2508461943269 275.22216796875) rotate(0 37.75798034667969 35)"><text x="37.75798034667969" y="0" font-family="Virgil, Segoe UI Emoji" font-size="28px" fill="#000000" text-anchor="middle" style="white-space: pre;" direction="ltr" dominant-baseline="text-before-edge">dec</text><text x="37.75798034667969" y="35" font-family="Virgil, Segoe UI Emoji" font-size="28px" fill="#000000" text-anchor="middle" style="white-space: pre;" direction="ltr" dominant-baseline="text-before-edge">2009</text></g><g stroke-linecap="round"><g transform="translate(560.7866585722566 187.77777099609375) rotate(0 30.098714801687834 35.574071586383525)"><path d="M-0.04 0.87 C9.83 12.59, 49.19 59.32, 59.35 70.87 M-1.52 0.27 C8.73 11.62, 51.36 57.32, 61.72 69.21" stroke="#000000" stroke-width="4" fill="none"></path></g></g><mask></mask><g stroke-linecap="round"><g transform="translate(626.342200564444 193.3333740234375) rotate(0 -37.74168804029932 29.665209759725258)"><path d="M0.54 0.25 C-12.09 10.13, -62.4 50.28, -74.86 59.99 M-0.63 -0.66 C-13.53 8.85, -63.65 48.4, -76.03 58.45" stroke="#000000" stroke-width="4" fill="none"></path></g></g><mask></mask><g transform="translate(980.2937844267487 282) rotate(0 107.60395812988281 35)"><text x="107.60395812988281" y="0" font-family="Virgil, Segoe UI Emoji" font-size="28px" fill="#000000" text-anchor="middle" style="white-space: pre;" direction="ltr" dominant-baseline="text-before-edge">annual releases</text><text x="107.60395812988281" y="35" font-family="Virgil, Segoe UI Emoji" font-size="28px" fill="#000000" text-anchor="middle" style="white-space: pre;" direction="ltr" dominant-baseline="text-before-edge">around June</text></g></svg>